HIERARCHY
ROOT hip
{
  OFFSET 0 0 0
  CHANNELS 6 Xposition Yposition Zposition Zrotation Yrotation Xrotation
  JOINT abdomen
  {
    OFFSET 0 20.6881 -0.73152
    CHANNELS 3 Zrotation Xrotation Yrotation
    JOINT chest
    {
      OFFSET 0 11.7043 -0.48768
      CHANNELS 3 Zrotation Xrotation Yrotation
      JOINT neck
      {
        OFFSET 0 22.1894 -2.19456
        CHANNELS 3 Zrotation Xrotation Yrotation
        JOINT head
        {
          OFFSET -0.24384 7.07133 1.2192
          CHANNELS 3 Zrotation Xrotation Yrotation
          JOINT leftEye
          {
            OFFSET 4.14528 8.04674 8.04672
            CHANNELS 3 Zrotation Xrotation Yrotation
            End Site
            {
              OFFSET 1 0 0
            }
          }
          JOINT rightEye
          {
            OFFSET -3.6576 8.04674 8.04672
            CHANNELS 3 Zrotation Xrotation Yrotation
            End Site
            {
              OFFSET 1 0 0
            }
          }
        }
      }
      JOINT rCollar
      {
        OFFSET -2.68224 19.2634 -4.8768
        CHANNELS 3 Zrotation Xrotation Yrotation
        JOINT rShldr
        {
          OFFSET -8.77824 -1.95073 1.46304
          CHANNELS 3 Zrotation Xrotation Yrotation
          JOINT rForeArm
          {
            OFFSET -28.1742 -1.7115 0.48768
            CHANNELS 3 Zrotation Xrotation Yrotation
            JOINT rHand
            {
              OFFSET -22.5879 0.773209 7.07136
              CHANNELS 3 Zrotation Xrotation Yrotation
              JOINT rThumb1
              {
                OFFSET -1.2192 -0.487915 3.41376
                CHANNELS 3 Zrotation Xrotation Yrotation
                JOINT rThumb2
                {
                  OFFSET -3.37035 -0.52449 3.41376
                  CHANNELS 3 Zrotation Xrotation Yrotation
                  End Site
                  {
                    OFFSET -1.78271 -1.18214 1.43049
                  }
                }
              }
              JOINT rIndex1
              {
                OFFSET -7.75947 0.938293 5.60832
                CHANNELS 3 Zrotation Xrotation Yrotation
                JOINT rIndex2
                {
                  OFFSET -2.54057 -0.884171 1.56538
                  CHANNELS 3 Zrotation Xrotation Yrotation
                  End Site
                  {
                    OFFSET -1.62519 -0.234802 1.16502
                  }
                }
              }
              JOINT rMid1
              {
                OFFSET -8.24714 1.18213 3.41376
                CHANNELS 3 Zrotation Xrotation Yrotation
                JOINT rMid2
                {
                  OFFSET -3.10165 -0.590103 1.0647
                  CHANNELS 3 Zrotation Xrotation Yrotation
                  End Site
                  {
                    OFFSET -2.48547 -0.328903 0.83742
                  }
                }
              }
              JOINT rRing1
              {
                OFFSET -8.82822 0.546677 1.51678
                CHANNELS 3 Zrotation Xrotation Yrotation
                JOINT rRing2
                {
                  OFFSET -2.60934 -0.819778 -0.0198488
                  CHANNELS 3 Zrotation Xrotation Yrotation
                  End Site
                  {
                    OFFSET -2.33842 -0.294052 0.168128
                  }
                }
              }
              JOINT rPinky1
              {
                OFFSET -8.27202 -0.0477905 -0.4584
                CHANNELS 3 Zrotation Xrotation Yrotation
                JOINT rPinky2
                {
                  OFFSET -1.82734 -0.647385 -0.700984
                  CHANNELS 3 Zrotation Xrotation Yrotation
                  End Site
                  {
                    OFFSET -1.69225 -0.51767 -0.607171
                  }
                }
              }
            }
          }
        }
      }
      JOINT lCollar
      {
        OFFSET 2.68224 19.2634 -4.8768
        CHANNELS 3 Zrotation Xrotation Yrotation
        JOINT lShldr
        {
          OFFSET 8.77824 -1.95073 1.46304
          CHANNELS 3 Zrotation Xrotation Yrotation
          JOINT lForeArm
          {
            OFFSET 28.1742 -1.7115 0.48768
            CHANNELS 3 Zrotation Xrotation Yrotation
            JOINT lHand
            {
              OFFSET 22.5879 0.773209 7.07136
              CHANNELS 3 Zrotation Xrotation Yrotation
              JOINT lThumb1
              {
                OFFSET 1.2192 -0.487915 3.41376
                CHANNELS 3 Zrotation Xrotation Yrotation
                JOINT lThumb2
                {
                  OFFSET 3.37035 -0.52449 3.41376
                  CHANNELS 3 Zrotation Xrotation Yrotation
                  End Site
                  {
                    OFFSET 1.78271 -1.18214 1.43049
                  }
                }
              }
              JOINT lIndex1
              {
                OFFSET 7.75947 0.938293 5.60832
                CHANNELS 3 Zrotation Xrotation Yrotation
                JOINT lIndex2
                {
                  OFFSET 2.54057 -0.884171 1.56538
                  CHANNELS 3 Zrotation Xrotation Yrotation
                  End Site
                  {
                    OFFSET 1.62519 -0.234802 1.16502
                  }
                }
              }
              JOINT lMid1
              {
                OFFSET 8.24714 1.18213 3.41376
                CHANNELS 3 Zrotation Xrotation Yrotation
                JOINT lMid2
                {
                  OFFSET 3.10165 -0.590103 1.0647
                  CHANNELS 3 Zrotation Xrotation Yrotation
                  End Site
                  {
                    OFFSET 2.48547 -0.328903 0.83742
                  }
                }
              }
              JOINT lRing1
              {
                OFFSET 8.82822 0.546677 1.51678
                CHANNELS 3 Zrotation Xrotation Yrotation
                JOINT lRing2
                {
                  OFFSET 2.60934 -0.819778 -0.0198488
                  CHANNELS 3 Zrotation Xrotation Yrotation
                  End Site
                  {
                    OFFSET 2.33842 -0.294052 0.168128
                  }
                }
              }
              JOINT lPinky1
              {
                OFFSET 8.27202 -0.0477905 -0.4584
                CHANNELS 3 Zrotation Xrotation Yrotation
                JOINT lPinky2
                {
                  OFFSET 1.82734 -0.647385 -0.700984
                  CHANNELS 3 Zrotation Xrotation Yrotation
                  End Site
                  {
                    OFFSET 1.69225 -0.51767 -0.607171
                  }
                }
              }
            }
          }
        }
      }
    }
  }
  JOINT rButtock
  {
    OFFSET -8.77824 4.35084 1.2192
    CHANNELS 3 Zrotation Xrotation Yrotation
    JOINT rThigh
    {
      OFFSET 0 -1.70687 -2.19456
      CHANNELS 3 Zrotation Xrotation Yrotation
      JOINT rShin
      {
        OFFSET 0 -36.8199 0.73152
        CHANNELS 3 Zrotation Xrotation Yrotation
        JOINT rFoot
        {
          OFFSET 0.73152 -45.1104 -5.12064
          CHANNELS 3 Zrotation Xrotation Yrotation
          End Site
          {
            OFFSET -1.1221 -3.69964 12.103
          }
        }
      }
    }
  }
  JOINT lButtock
  {
    OFFSET 8.77824 4.35084 1.2192
    CHANNELS 3 Zrotation Xrotation Yrotation
    JOINT lThigh
    {
      OFFSET 0 -1.70687 -2.19456
      CHANNELS 3 Zrotation Xrotation Yrotation
      JOINT lShin
      {
        OFFSET 0 -36.8199 0.73152
        CHANNELS 3 Zrotation Xrotation Yrotation
        JOINT lFoot
        {
          OFFSET -0.73152 -45.1104 -5.12064
          CHANNELS 3 Zrotation Xrotation Yrotation
          End Site
          {
            OFFSET 1.1221 -3.69964 12.103
          }
        }
      }
    }
  }
}
MOTION
Frames:	7
Frame Time:	0.03333
-49.4763 65.89779999999999 -33.0446 143.50762 -77.735232 -139.088114 -17.845625 2.332227 148.323808 -6.944324 0.516551 -136.042935 7.540424 23.947327 90.794711 -36.12638 12.879271 -125.045582 0.003021 0.0 0.0014 -0.001723 -0.0 0.005569 3.166094 -25.545598 -5.021118 -135.072547 -5.544767 119.329487 5.245907 -11.743282 -52.833109 153.459722 -38.247441 138.190373 -105.453829 35.801072 61.645892 -6.071827 -19.884998 26.989775 -155.451565 -24.780519 122.193639 -137.725313 26.877591 111.22266 -34.295252 50.740875 28.210287 159.299093 -69.589123 125.816771 0.003037 2.461569 0.773697 -153.311678 22.118352 168.58505 -143.030609 5.606303 -139.900286 21.451116 55.555158 6.178975 158.647597 -32.642122 -167.394922 64.720144 18.109217 -9.719223 -16.82929 -25.455837 129.070728 153.951324 27.537789 -131.674528 -166.32906 -29.188501 -85.692143 148.904334 12.260156 -85.287303 62.775685 42.927554 -51.122051 -160.041257 -51.495264 -99.444711 161.330534 -8.713926 -143.543599 6.419176 23.973581 -5.693615 145.118817 0.204262 179.191995 152.00682 -27.210369 174.891723 173.380367 83.486613 143.932358 13.373972 -27.989104 14.204507 179.987792 75.74988 0.010449 159.255756 0.781252 92.438795 77.883475 11.154052 -128.897765 57.360992 32.378343 23.356534 0.010316 -0.000215 0.009621 9.717394 8.718083 -51.043821 -36.797245 20.04573 -68.59008 -142.543539 16.87518 -160.454529
-49.7484 65.7985 -33.0257 143.133728 -77.410502 -138.533249 -14.543192 3.618556 -101.913835 5.024709 3.097199 114.39141 7.07425 29.422827 123.157275 -30.751748 31.965022 -153.549537 0.002827 -0.0 -0.001104 0.003665 0.0 0.003625 -146.634973 31.737898 151.33695 -58.329368 -33.475783 -52.112794 45.638654 59.939619 -87.466709 167.821106 -8.036705 148.301412 -174.3337 -11.996215 89.862025 -80.795396 8.353039 27.280213 -140.226003 2.229394 115.913021 -22.437325 42.800501 9.83725 -176.044815 -50.914507 143.991819 -162.348432 -1.545104 142.655869 0.001743 0.43158 0.136945 -153.219554 21.575865 168.682798 -152.478145 38.430896 -147.782438 0.553046 -3.133252 -2.886051 155.594232 -72.551787 -179.112182 44.193483 14.939046 29.013628 -177.554469 25.629679 77.817961 12.626713 -17.649544 5.243899 -170.974536 -25.494075 -87.221543 -68.970363 -76.994962 -50.901954 -28.843677 -48.94574 4.347769 170.076983 -33.066578 -110.104694 -13.865229 -42.27192 2.971975 45.861619 59.737196 -39.530574 -0.004193 0.332961 -0.104158 -10.436112 -1.955518 0.309054 145.755027 13.930135 142.338087 27.38824 -41.384186 28.595778 -179.996665 75.749411 -0.002251 159.19787 0.003745 116.296922 81.335956 -23.53518 -5.679148 -147.717415 22.675098 72.673861 0.00325 0.001364 0.002641 7.537554 8.233135 106.83926 42.936728 -10.89392 92.857916 -82.522905 -0.887791 -166.10344
-49.988 65.7065 -33.0032 143.009013 -77.317043 -138.279945 -19.221194 4.835861 65.535499 -3.634812 -8.808955 -52.869169 -10.477861 32.811122 -126.078063 36.293287 29.287092 79.641721 -0.001474 -0.0 5.5e-05 0.004127 -0.0 -0.001125 -152.786749 11.235813 158.3476 82.712838 46.999999 -85.294625 136.113851 -69.693379 81.806445 163.475084 -19.448677 145.774635 -115.205594 32.822426 68.093769 -155.193494 -23.131588 76.242226 -146.454845 -8.229623 119.203871 176.009115 -49.830998 111.764888 178.507705 -60.176597 141.243687 12.253013 -27.541147 -1.171833 -145.119075 0.195557 -179.18948 -156.819052 21.382608 178.314608 -146.139708 15.19529 -142.675126 -145.134401 4.741855 -139.922137 143.598026 38.276313 -148.0568 100.37803 10.489639 -85.271342 -170.846655 9.326312 77.381801 14.570417 -10.076595 3.653008 177.838213 -15.410666 -89.559884 -32.023075 -68.773219 -24.17998 151.991301 -18.344501 -121.331894 -153.950425 -64.56461 -94.442282 -4.221214 -12.973418 1.984539 -2.841687 1.004107 -0.116402 145.122468 1.811687 179.697234 156.218851 8.484012 -179.748503 157.612739 58.263601 150.612649 144.794961 1.854442 139.440687 179.958885 75.748982 0.033419 161.276461 0.224885 -89.746371 -83.422703 -2.48425 -171.575264 -11.394993 -5.340726 -85.491105 179.97495 75.750114 0.021383 -124.964599 80.963503 38.382884 30.756803 -4.895254 -80.387398 81.816573 6.193144 1.075221
-50.2172 65.6168 -32.9739 143.340818 -77.368239 -138.533957 -14.565822 3.80676 -87.901984 6.101467 1.727397 100.668869 -14.022114 24.979006 -74.77268 38.20439 -0.65318 38.32221 -0.001012 0.0 -0.001999 -0.000157 -0.0 0.002726 -1.692374 9.074014 2.162881 -70.188035 20.138844 72.987052 168.542764 -23.903867 -169.264501 -20.1844 62.397472 11.068166 144.36012 -42.228693 75.115637 -172.763102 -19.094904 114.717552 13.233797 -23.673276 -5.351788 -176.073154 -36.009596 106.753253 -163.116393 -14.384967 144.25461 34.492321 -64.175199 10.551103 -145.112124 -0.747124 -178.893979 -157.171743 50.558292 174.830947 -2.021084 -5.023311 -1.88064 -149.068652 17.899972 -145.094311 5.6695 24.457313 -6.815319 -71.529534 -37.777596 11.50125 7.567309 56.89132 -110.104097 9.670763 -28.75956 7.189163 176.771192 -14.38161 -89.675043 -167.66703 -28.96934 -101.334731 -8.740994 -15.322143 4.076492 -7.432564 8.374731 -0.669748 -11.129037 -34.709602 3.263059 -4.991089 -5.687988 0.646094 145.121078 0.581882 179.311163 151.509874 -29.968966 174.289725 100.176918 -46.616876 98.389321 155.682992 42.092783 147.454226 -0.000492 -0.000469 -0.000481 -53.484876 -64.942141 -53.601323 -63.682063 82.663639 -157.221664 55.264289 64.016937 -146.335695 -179.99963 75.750111 -0.000189 -120.285511 81.239417 16.828411 41.990951 5.720749 68.007072 -38.229135 -16.224802 -122.297018
-50.4078 65.551 -32.9154 144.055682 -77.507685 -139.230953 -14.329112 3.029876 -106.947108 4.482085 3.49804 119.530832 7.911566 25.031896 97.230071 -35.932578 17.008837 -130.776448 1.6e-05 -0.0 -0.0014 0.000867 0.0 0.003326 -53.942584 66.466289 56.748396 -52.476526 23.031571 10.832359 175.547188 -5.376987 -162.733805 -13.621831 53.314396 6.5789 -3.480205 3.397736 0.635371 23.841053 -35.066152 -13.221978 -171.600515 -50.361378 120.674923 -2.280744 28.10691 -1.016374 -157.922507 1.541286 141.807237 46.443864 -70.894385 20.551806 0.005707 0.895459 0.280144 9.4704 -63.378141 -9.432297 158.711258 87.602593 -117.592269 5.901087 12.986751 2.310821 155.686251 -4.720881 -162.092242 -45.766891 -56.688119 -101.259405 -20.519666 -65.229469 -116.617049 12.659435 -16.443034 5.028963 1.780905 1.750096 -0.29999 137.654242 -40.966945 -117.92641 121.901483 24.611453 -102.903341 174.129623 -30.238767 -116.097923 148.25071 24.37672 -135.079115 -4.018629 -2.007496 -0.070734 -0.00253 2.223398 -0.698543 5.569441 61.373805 -18.036977 -38.277332 85.289151 -0.680356 0.198672 -4.008694 2.33101 -179.997803 75.750709 -0.002094 158.831903 0.100718 89.928228 84.516799 2.268244 15.564089 -63.739441 -66.931627 -151.872024 -179.997803 75.750709 -0.002094 -118.002809 81.137981 22.585754 42.155122 0.600694 64.172158 169.465047 43.01548 98.932259
-50.6028 65.449 -32.8359 144.536938 -77.54918 -139.725219 -18.678067 3.155869 104.069342 -6.933889 -5.116056 -91.914187 -10.567804 18.09194 -30.148283 21.1023 -22.667474 -2.488927 -0.001352 0.0 -0.005719 -0.000508 0.0 -0.000992 4.048895 -38.915686 -7.495517 1.132246 31.493629 69.566883 -22.706665 -5.191252 5.660577 7.347363 -5.797324 5.277348 32.722077 -30.208108 4.077865 -97.44609 33.077739 77.97915 25.038148 -43.738781 -5.374972 11.902601 6.042393 -1.731841 -155.404995 8.431226 140.268944 8.438048 -15.52381 -1.008333 -145.118752 0.304544 -179.22232 10.294157 1.044428 -8.867285 19.186841 66.53705 13.081733 -17.232084 -33.242386 -17.56069 157.489008 -19.043673 -164.899232 -109.595535 -32.685177 -154.951864 46.301914 -38.255277 -71.156555 0.013418 -63.925427 9.633591 144.298092 16.243026 -84.003636 -3.886317 -40.842541 -21.327719 -63.421848 -71.376425 -18.128078 116.646649 38.390009 -97.216052 159.679474 -3.629629 -142.759208 166.658727 -15.02557 -143.736075 -0.001324 0.223707 -0.070755 -0.888439 51.090173 -11.416508 143.010504 5.542357 139.87851 69.422808 -53.099848 69.365796 -0.003353 0.001303 -0.000521 -54.793793 -66.49143 -153.11913 -85.776092 -12.847795 -159.401587 -11.684064 64.696308 -75.805215 179.998296 75.750083 0.001461 -112.005056 78.990097 -168.165687 -41.95711 -8.218522 -90.510687 146.765934 36.622352 127.473402
-50.764900000000004 65.3971 -32.7537 145.025393 -77.517087 -140.24002 -13.815039 4.086589 -81.906376 6.650665 1.050593 93.837644 -13.476046 21.499938 -53.068819 32.302083 -12.375788 20.687244 -0.000574 0.0 -8.2e-05 -0.000574 0.0 -8.2e-05 0.729454 -4.620614 -0.996975 -120.987756 14.528612 104.445307 -173.285875 -6.734791 -161.824052 -5.61706 35.526749 3.241891 -77.175443 38.660236 41.803764 23.541428 -26.013335 19.700894 -144.658445 -5.082937 118.341425 66.789627 -65.742173 18.190977 -169.042635 -33.106219 145.375444 -6.561164 24.105951 5.713357 -145.117884 -0.001228 -179.128491 3.808365 -40.188197 -16.666074 -9.254058 -19.376827 -8.747208 -67.938376 -54.921348 -68.121005 -3.613694 -31.287524 6.069636 64.96769 -29.545716 105.086061 -5.931337 -14.558767 133.353081 159.670899 17.650493 -136.769946 6.7747 6.526906 -1.415342 98.32115 10.148586 -90.350854 173.288781 -52.340784 -120.022337 135.583967 25.313122 -110.970161 -9.819341 -30.791865 3.239165 3.985658 18.869439 -3.735667 145.107442 -0.976661 178.821156 -12.156625 48.988528 3.282734 162.187587 71.675175 150.938567 97.985834 -49.764454 96.156654 -179.975831 75.749577 -0.019187 160.839822 -0.064542 -90.025363 -89.903806 -12.089651 -44.342171 -6.211968 28.602919 145.200093 -179.997614 75.749578 -0.002245 -113.970991 81.324039 17.142002 28.871538 3.000736 -93.103764 46.514226 13.20282 29.225645
